<svg xmlns="http://www.w3.org/2000/svg" xmlns:xlink="http://www.w3.org/1999/xlink" version="1.1" width="256" height="256" viewBox="0 0 256 256" xml:space="preserve">

<defs>
</defs>
<g style="stroke: none; stroke-width: 0; stroke-dasharray: none; stroke-linecap: butt; stroke-linejoin: miter; stroke-miterlimit: 10; fill: none; fill-rule: nonzero; opacity: 1;" transform="translate(1.4065934065934016 1.4065934065934016) scale(2.81 2.81)" >
	<path d="M 77.317 32.263 c 0 1.094 -0.416 2.188 -1.247 3.02 l -9.014 9.014 c -0.808 0.808 -1.881 1.252 -3.022 1.252 s -2.215 -0.445 -3.022 -1.252 l -5.364 -5.364 v 46.793 c 0 2.357 -1.918 4.275 -4.274 4.275 H 38.628 c -2.357 0 -4.274 -1.917 -4.274 -4.275 V 38.931 l -5.364 5.364 c -0.807 0.808 -1.881 1.252 -3.022 1.252 c -1.143 0 -2.216 -0.445 -3.024 -1.253 l -9.01 -9.011 c -1.666 -1.666 -1.667 -4.379 0 -6.045 L 41.929 1.244 C 42.737 0.435 43.851 -0.014 45 0 c 1.15 -0.014 2.264 0.436 3.071 1.244 l 27.996 27.995 C 76.901 30.073 77.317 31.168 77.317 32.263 z M 64.034 38.834 l 6.572 -6.572 L 45 6.657 L 19.396 32.262 l 6.571 6.572 l 9.266 -9.266 c 0.858 -0.858 2.148 -1.115 3.269 -0.65 c 1.121 0.464 1.852 1.558 1.852 2.771 V 84 h 9.293 V 31.689 c 0 -1.214 0.73 -2.308 1.852 -2.771 c 1.121 -0.465 2.412 -0.208 3.27 0.65 L 64.034 38.834 z M 46.171 5.486 L 46.171 5.486 L 46.171 5.486 z" style="stroke: none; stroke-width: 1; stroke-dasharray: none; stroke-linecap: butt; stroke-linejoin: miter; stroke-miterlimit: 10; fill: rgb(255,255,255); fill-rule: nonzero; opacity: 1;" transform=" matrix(1 0 0 1 0 0) " stroke-linecap="round" />
</g>
</svg>